<svg width="94" height="99" viewBox="0 0 94 99" fill="none" xmlns="http://www.w3.org/2000/svg">
<rect y="5" width="94" height="94" rx="20" fill="#F3ECFF"/>
<path d="M74.4219 51.4011C74.4219 58.3589 73.2317 64.4318 70.8514 69.6196C68.5322 74.7464 65.389 78.7441 61.4218 81.6126C57.4546 84.4812 52.9687 85.9155 47.9639 85.9155C42.654 85.9155 37.8324 84.5423 33.499 81.7957C29.1657 78.9882 25.7173 75.0821 23.1539 70.0773C20.6515 65.0726 19.4003 59.2439 19.4003 52.5913C19.4003 47.5255 20.1022 42.7039 21.506 38.1264C22.9708 33.5489 24.9849 29.4902 27.5483 25.9502C30.1117 22.4103 33.0413 19.6333 36.3371 17.6192C39.6939 15.5441 43.2339 14.5065 46.9569 14.5065C50.802 14.5065 54.3724 15.422 57.6682 17.253C61.0251 19.023 63.9547 21.5558 66.457 24.8516C68.9594 28.1474 70.9125 32.0536 72.3162 36.57C73.72 41.0865 74.4219 46.0302 74.4219 51.4011ZM62.7035 51.4011C62.7035 45.7861 62.0932 40.6898 60.8725 36.1123C59.7129 31.5348 57.9734 27.9033 55.6541 25.2178C53.3349 22.5324 50.4358 21.1896 46.9569 21.1896C44.5766 21.1896 42.4099 22.1051 40.4568 23.9361C38.5038 25.7061 36.8254 28.1169 35.4216 31.1686C34.0789 34.1592 33.0108 37.5161 32.2173 41.2391C31.4849 44.9621 31.1187 48.7462 31.1187 52.5913C31.1187 57.8402 31.7901 62.5092 33.1328 66.5984C34.4756 70.6266 36.3981 73.8004 38.9005 76.1196C41.4639 78.3779 44.485 79.507 47.9639 79.507C51.0156 79.507 53.64 78.2863 55.8372 75.845C58.0344 73.3426 59.7129 69.9553 60.8725 65.6829C62.0932 61.4106 62.7035 56.65 62.7035 51.4011Z" fill="#7D74FF"/>
<path d="M38.6723 28.9275C38.6666 27.6009 38.1315 26.3459 37.1631 25.4393C36.1959 24.5327 34.8748 24.0488 33.5118 24.0932C32.1489 24.1377 30.8621 24.7068 29.9561 25.6745C29.0489 26.6423 28.5968 27.9295 28.6776 29.2537C28.6776 29.2537 28.6776 29.2537 28.6776 29.2537C28.7584 30.593 28.8452 31.933 28.9401 33.2747C29.5099 40.1063 29.7749 46.65 31.8564 54.1753L31.8986 54.3123C33.0155 57.3459 34.0316 60.1421 35.6304 63.3557C38.8627 68.9339 42.67 73.0241 48.2775 76.1952C52.5548 78.5949 58.25 78.7384 61.7331 78.2273C62.8449 78.1842 63.2385 77.9342 63.6365 77.774C64.0153 77.5969 64.2851 77.4331 64.5385 77.2706C65.0309 76.9505 65.4182 76.6457 65.7866 76.3415C66.5162 75.7338 67.1433 75.1328 67.7529 74.5176C68.9709 73.2669 70.044 72.0961 71.1852 70.5194C72.1218 69.1629 73.0227 67.8257 73.9303 66.482C74.6737 65.3801 75.4159 64.2771 76.1542 63.177C76.5532 62.5816 76.6989 61.8419 76.5687 61.1272C76.4379 60.4122 76.0419 59.7809 75.4584 59.3653C74.8748 58.9498 74.1487 58.7821 73.4302 58.8923C72.7123 59.003 72.0609 59.3826 71.6288 59.9544C71.6288 59.9544 71.6288 59.9544 71.6288 59.9544C70.8344 61.0055 70.0327 62.0645 69.2326 63.1184C68.2592 64.399 67.2748 65.6972 66.31 66.9392C65.5479 67.88 64.4259 69.0151 63.3763 69.9668C62.8436 70.4481 62.2989 70.9085 61.7868 71.286C61.5343 71.4721 61.2837 71.6391 61.1059 71.7359C61.0195 71.7837 60.9484 71.8124 60.9638 71.7986C61.0041 71.7956 61.0181 71.6862 61.7331 71.6482C57.2826 71.9287 54.5746 71.4866 51.8067 69.8597C48.2336 67.6819 44.7465 63.4883 42.9427 59.7756C41.9322 57.4386 40.9638 54.3964 40.1276 51.6264L40.1698 51.7633C38.9552 46.3091 38.8431 39.3487 38.7088 32.8539C38.6896 31.5478 38.678 30.2388 38.6723 28.9275Z" fill="#7D74FF"/>
<path d="M24.1277 62.8353C23.3391 60.3076 23.939 46.7705 25.3131 37.7767C26.6872 28.7828 29.7954 24.1005 29.7954 24.1005" stroke="#7D74FF" stroke-width="6" stroke-linecap="round"/>
</svg>
