<svg width="94" height="94" viewBox="0 0 94 94" fill="none" xmlns="http://www.w3.org/2000/svg">
<rect width="94" height="94" rx="20" fill="#F3ECFF"/>
<path d="M74.4219 46.4011C74.4219 53.3589 73.2317 59.4317 70.8514 64.6196C68.5322 69.7464 65.3889 73.7441 61.4218 76.6126C57.4546 79.4812 52.9687 80.9155 47.9639 80.9155C42.654 80.9155 37.8324 79.5422 33.499 76.7957C29.1657 73.9882 25.7173 70.0821 23.1539 65.0773C20.6515 60.0726 19.4003 54.2439 19.4003 47.5913C19.4003 42.5255 20.1022 37.7039 21.506 33.1264C22.9708 28.5489 24.9849 24.4902 27.5483 20.9502C30.1117 17.4103 33.0413 14.6333 36.3371 12.6192C39.6939 10.544 43.2338 9.50647 46.9569 9.50647C50.802 9.50647 54.3724 10.422 57.6682 12.253C61.0251 14.0229 63.9547 16.5558 66.457 19.8516C68.9594 23.1474 70.9125 27.0536 72.3162 31.57C73.72 36.0865 74.4219 41.0302 74.4219 46.4011ZM62.7035 46.4011C62.7035 40.7861 62.0931 35.6898 60.8725 31.1123C59.7128 26.5348 57.9734 22.9033 55.6541 20.2178C53.3349 17.5324 50.4358 16.1896 46.9569 16.1896C44.5766 16.1896 42.4099 17.1051 40.4568 18.9361C38.5038 20.7061 36.8253 23.1169 35.4216 26.1686C34.0788 29.1592 33.0108 32.516 32.2173 36.2391C31.4849 39.9621 31.1187 43.7462 31.1187 47.5913C31.1187 52.8401 31.7901 57.5092 33.1328 61.5984C34.4756 65.6266 36.3981 68.8004 38.9005 71.1196C41.4639 73.3779 44.485 74.507 47.9639 74.507C51.0156 74.507 53.64 73.2863 55.8372 70.845C58.0344 68.3426 59.7128 64.9553 60.8725 60.6829C62.0931 56.4106 62.7035 51.65 62.7035 46.4011Z" fill="#6F00FF"/>
<path d="M33.5119 19.0935C34.8748 19.049 36.1961 19.5326 37.1632 20.4392C38.1316 21.3458 38.6663 22.6009 38.672 23.9275C38.6778 25.2388 38.6899 26.5482 38.7091 27.8543C38.8434 34.3489 38.9555 41.3093 40.1701 46.7634L40.7785 48.74C41.4509 50.8735 42.1848 53.0226 42.9425 54.7752C44.7463 58.4879 48.2336 62.6823 51.8068 64.8601C54.464 66.422 57.0663 66.8897 61.2081 66.6765C61.3736 66.5778 61.5802 66.4385 61.7872 66.2859C62.2992 65.9085 62.8436 65.4478 63.3761 64.9666C64.4257 64.015 65.5475 62.88 66.3097 61.9392C67.2745 60.6973 68.2592 59.3986 69.2326 58.1179C70.0325 57.0642 70.8348 56.0058 71.629 54.9548C72.0611 54.3832 72.7121 54.0031 73.4298 53.8923C74.1482 53.7821 74.8746 53.9496 75.4581 54.365C76.0417 54.7806 76.4377 55.4127 76.5685 56.1277C76.6985 56.842 76.5532 57.5814 76.1544 58.1765C75.4161 59.2766 74.6732 60.3803 73.9298 61.4822C73.0224 62.8257 72.1222 64.163 71.1857 65.5193C70.0446 67.0959 68.971 68.2667 67.7531 69.5173C67.1435 70.1326 66.5158 70.7339 65.7863 71.3416C65.4179 71.6457 65.0305 71.9502 64.5382 72.2703C64.2848 72.4327 64.0155 72.5971 63.6369 72.7742C63.2389 72.9344 62.845 73.1842 61.7335 73.2273C58.2504 73.7384 52.5547 73.5947 48.2775 71.1951C42.67 68.024 38.8623 63.9334 35.63 58.3552C34.0314 55.1418 33.0154 52.3458 31.8986 49.3123L31.8566 49.1755C29.7751 41.6504 29.5104 35.1066 28.9406 28.2752C28.8457 26.9335 28.7587 25.593 28.6779 24.2537C28.5971 22.9295 29.049 21.6424 29.9562 20.6746C30.8622 19.7068 32.1489 19.138 33.5119 19.0935ZM61.1134 66.7302C60.9993 66.765 60.9852 66.7968 60.964 66.7986C60.9487 66.8124 61.0193 66.7838 61.1056 66.7361C61.1083 66.7346 61.1107 66.7317 61.1134 66.7302Z" fill="#6F00FF"/>
<path d="M27.2955 17.4395C28.2116 16.0598 30.0736 15.6851 31.4541 16.6022C32.8339 17.5189 33.21 19.3791 32.2958 20.7587L32.2967 20.7597L32.2988 20.7559C32.2998 20.7542 32.3011 20.7521 32.3018 20.751L32.2957 20.7616C32.2843 20.7795 32.2618 20.8152 32.2297 20.8685C32.1654 20.9751 32.0614 21.1522 31.928 21.3993C31.6611 21.8937 31.2746 22.6676 30.8418 23.7144C29.9767 25.807 28.9263 28.9938 28.2788 33.2318C27.6116 37.5986 27.1254 43.1226 26.9057 47.8717C26.796 50.2433 26.7545 52.3845 26.786 54.0639C26.8018 54.9052 26.8357 55.6011 26.8836 56.1363C26.9352 56.7116 26.9903 56.9378 26.9916 56.9438C27.4851 58.5258 26.603 60.2072 25.0216 60.6996C23.44 61.192 21.7579 60.3086 21.2643 58.7266C20.9182 57.6171 20.8194 55.8619 20.7876 54.1726C20.7528 52.3219 20.7992 50.0424 20.9127 47.5897C21.1393 42.6899 21.6405 36.9483 22.3474 32.3213C23.074 27.5659 24.2644 23.9143 25.2968 21.4173C25.8127 20.1696 26.2894 19.2107 26.6481 18.5461C26.8274 18.2141 26.9774 17.955 27.0884 17.7705C27.144 17.6782 27.1907 17.6042 27.2255 17.5492C27.2428 17.5218 27.2574 17.499 27.2691 17.4809L27.2904 17.4472C27.2913 17.4458 27.2926 17.4446 27.2935 17.4434L27.2945 17.4414C27.2956 17.441 27.3314 17.464 29.6499 19.0042L27.2955 17.4395Z" fill="#6F00FF"/>
</svg>
