<svg width="89" height="97" viewBox="0 0 89 97" fill="none" xmlns="http://www.w3.org/2000/svg">
<rect y="3" width="89" height="94" rx="20" fill="#E8DAFF"/>
<path d="M72.0047 51.4011C72.0047 58.3589 70.8145 64.4318 68.4342 69.6196C66.115 74.7464 62.9718 78.7441 59.0046 81.6126C55.0374 84.4812 50.5515 85.9155 45.5467 85.9155C40.2368 85.9155 35.4152 84.5423 31.0818 81.7957C26.7485 78.9882 23.3001 75.0821 20.7367 70.0773C18.2343 65.0726 16.9831 59.2439 16.9831 52.5913C16.9831 47.5255 17.685 42.7039 19.0888 38.1264C20.5536 33.5489 22.5677 29.4902 25.1311 25.9502C27.6945 22.4103 30.6241 19.6333 33.9199 17.6192C37.2767 15.5441 40.8167 14.5065 44.5397 14.5065C48.3848 14.5065 51.9552 15.422 55.251 17.253C58.6079 19.023 61.5375 21.5558 64.0398 24.8516C66.5422 28.1474 68.4953 32.0536 69.8991 36.57C71.3028 41.0865 72.0047 46.0302 72.0047 51.4011ZM60.2863 51.4011C60.2863 45.7861 59.676 40.6898 58.4553 36.1123C57.2957 31.5348 55.5562 27.9033 53.2369 25.2178C50.9177 22.5324 48.0186 21.1896 44.5397 21.1896C42.1594 21.1896 39.9927 22.1051 38.0396 23.9361C36.0866 25.7061 34.4082 28.1169 33.0044 31.1686C31.6617 34.1592 30.5936 37.5161 29.8001 41.2391C29.0677 44.9621 28.7015 48.7462 28.7015 52.5913C28.7015 57.8402 29.3729 62.5092 30.7156 66.5984C32.0584 70.6266 33.9809 73.8004 36.4833 76.1196C39.0467 78.3779 42.0678 79.507 45.5467 79.507C48.5984 79.507 51.2228 78.2863 53.42 75.845C55.6172 73.3426 57.2957 69.9553 58.4553 65.6829C59.676 61.4106 60.2863 56.65 60.2863 51.4011Z" fill="#5E0D9C"/>
<path d="M35.997 28.9243C35.9902 27.5977 35.4541 26.3431 34.4851 25.4371C33.5174 24.5311 32.1961 24.048 30.8335 24.0933C29.4708 24.1387 28.1846 24.7086 27.2792 25.6769C26.3726 26.6453 25.9211 27.9328 26.0025 29.2569C26.0025 29.2569 26.0025 29.2569 26.0025 29.2569C26.0845 30.6057 26.1727 31.9554 26.2692 33.3068C26.8454 40.1341 27.1105 46.6703 29.2288 54.1982L29.2725 54.3373C30.4102 57.3742 31.4445 60.1711 33.0733 63.3862C36.3819 68.9945 40.2787 73.0738 45.9449 76.2136C50.305 78.6052 56.0373 78.7377 59.6045 78.2282C60.6948 78.1872 61.0908 77.9457 61.4899 77.7878C61.8707 77.6137 62.1423 77.4523 62.3993 77.2911C62.8975 76.9739 63.2913 76.6705 63.666 76.3673C64.4084 75.7616 65.0477 75.1612 65.6696 74.546C66.9125 73.2951 68.0087 72.1234 69.1766 70.5418C70.132 69.1856 71.0511 67.8484 71.9771 66.5048C72.7361 65.4022 73.4938 64.2984 74.2476 63.1976C74.6523 62.6059 74.8049 61.8675 74.6813 61.1516C74.5571 60.4353 74.1669 59.8003 73.587 59.3793C73.0072 58.9583 72.2825 58.784 71.563 58.8878C70.844 58.9919 70.1892 59.3657 69.7519 59.9337C69.7519 59.9337 69.7519 59.9337 69.7519 59.9337C68.9425 60.9851 68.1256 62.0442 67.3104 63.0982C66.3193 64.3782 65.317 65.6757 64.3348 66.9168C63.5549 67.8618 62.409 68.9989 61.3378 69.9514C60.794 70.4333 60.2386 70.8936 59.7158 71.2713C59.458 71.4576 59.2022 71.6246 59.0191 71.7223C58.9298 71.7707 58.8563 71.8 58.8676 71.7882C58.9031 71.7864 58.9157 71.6833 59.6045 71.6473C55.0894 71.9259 52.2747 71.4864 49.4268 69.8413C45.7833 67.6647 42.2181 63.4724 40.3681 59.7451C39.3393 57.4154 38.3488 54.3711 37.4945 51.6014L37.5382 51.7404C36.3018 46.3174 36.1791 39.3617 36.0375 32.877C36.0168 31.5622 36.0039 30.2444 35.997 28.9243Z" fill="#5E0D9C"/>
<path d="M21.2666 62.8353C20.4627 60.3076 21.0743 46.7705 22.4751 37.7767C23.876 28.7828 27.0447 24.1005 27.0447 24.1005" stroke="#5E0D9C" stroke-width="6" stroke-linecap="round"/>
</svg>
